# xmcd
#
# Track frame offsets:
#	150
#	18080
#	36517
#	55945
#	72075
#	92900
#	113967
#	132370
#	150417
#
# Disc length: 2279 seconds
#
# Revision: 5
# Processed by: cddbd v1.5.2PL0 Copyright (c) Steve Scherf et al.
# Submitted via: EasyCDDAExtractor 15.3.0.1
#
DISCID=7208e509
DTITLE=Jessica Cristina - Me Gusta Todo De Ti
DYEAR=1996
DGENRE=Latin
TTITLE0=Te Felicito
TTITLE1=Me Gusta Todo De Ti
TTITLE2=Cuando Pienses En Mi
TTITLE3=Ay Amor
TTITLE4=Necesito Una Persona
TTITLE5=Te Reto
TTITLE6=Amor Prohibido
TTITLE7=Te Siento
TTITLE8=Necesito Una Persona (Remix)
EXTD=
EXTT0=
EXTT1=
EXTT2=
EXTT3=
EXTT4=
EXTT5=
EXTT6=
EXTT7=
EXTT8=
PLAYORDER=
